# Blender v2.91.2 OBJ File: ''
# www.blender.org
mtllib 0.mtl
o Cube_Cube.001
v -0.800000 -1.000000 0.800000
v -0.800000 -0.800000 1.000000
v -1.000000 -0.800000 0.800000
v -0.800000 -0.984776 0.876537
v -0.800000 -0.941421 0.941421
v -0.876537 -0.984776 0.800000
v -0.878455 -0.966402 0.878455
v -0.874474 -0.931251 0.931251
v -0.915470 -0.915470 0.915470
v -0.876537 -0.800000 0.984776
v -0.941421 -0.800000 0.941421
v -0.800000 -0.876537 0.984776
v -0.878455 -0.878455 0.966402
v -0.931251 -0.874474 0.931251
v -0.984776 -0.876537 0.800000
v -0.941421 -0.941421 0.800000
v -0.984776 -0.800000 0.876537
v -0.966402 -0.878455 0.878455
v -0.931251 -0.931251 0.874474
v -0.800000 0.800000 1.000000
v -0.800000 1.000000 0.800000
v -1.000000 0.800000 0.800000
v -0.800000 0.876537 0.984776
v -0.800000 0.941421 0.941421
v -0.876537 0.800000 0.984776
v -0.878455 0.878455 0.966402
v -0.874474 0.931251 0.931251
v -0.915470 0.915470 0.915470
v -0.876537 0.984776 0.800000
v -0.941421 0.941421 0.800000
v -0.800000 0.984776 0.876537
v -0.878455 0.966402 0.878455
v -0.931251 0.931251 0.874474
v -0.984776 0.800000 0.876537
v -0.941421 0.800000 0.941421
v -0.984776 0.876537 0.800000
v -0.966402 0.878455 0.878455
v -0.931251 0.874474 0.931251
v -0.800000 -1.000000 -0.800000
v -1.000000 -0.800000 -0.800000
v -0.800000 -0.800000 -1.000000
v -0.876537 -0.984776 -0.800000
v -0.941421 -0.941421 -0.800000
v -0.800000 -0.984776 -0.876537
v -0.878455 -0.966402 -0.878455
v -0.931251 -0.931251 -0.874474
v -0.915470 -0.915470 -0.915470
v -0.984776 -0.800000 -0.876537
v -0.941421 -0.800000 -0.941421
v -0.984776 -0.876537 -0.800000
v -0.966402 -0.878455 -0.878455
v -0.931251 -0.874474 -0.931251
v -0.800000 -0.876537 -0.984776
v -0.800000 -0.941421 -0.941421
v -0.876537 -0.800000 -0.984776
v -0.878455 -0.878455 -0.966402
v -0.874474 -0.931251 -0.931251
v -0.800000 1.000000 -0.800000
v -0.800000 0.800000 -1.000000
v -1.000000 0.800000 -0.800000
v -0.800000 0.984776 -0.876537
v -0.800000 0.941421 -0.941421
v -0.876537 0.984776 -0.800000
v -0.878455 0.966402 -0.878455
v -0.874474 0.931251 -0.931251
v -0.915470 0.915470 -0.915470
v -0.876537 0.800000 -0.984776
v -0.941421 0.800000 -0.941421
v -0.800000 0.876537 -0.984776
v -0.878455 0.878455 -0.966402
v -0.931251 0.874474 -0.931251
v -0.984776 0.876537 -0.800000
v -0.941421 0.941421 -0.800000
v -0.984776 0.800000 -0.876537
v -0.966402 0.878455 -0.878455
v -0.931251 0.931251 -0.874474
v 0.800000 -1.000000 0.800000
v 1.000000 -0.800000 0.800000
v 0.800000 -0.800000 1.000000
v 0.876537 -0.984776 0.800000
v 0.941421 -0.941421 0.800000
v 0.800000 -0.984776 0.876537
v 0.878455 -0.966402 0.878455
v 0.931251 -0.931251 0.874474
v 0.915470 -0.915470 0.915470
v 0.984776 -0.800000 0.876537
v 0.941421 -0.800000 0.941421
v 0.984776 -0.876537 0.800000
v 0.966402 -0.878455 0.878455
v 0.931251 -0.874474 0.931251
v 0.800000 -0.876537 0.984776
v 0.800000 -0.941421 0.941421
v 0.876537 -0.800000 0.984776
v 0.878455 -0.878455 0.966402
v 0.874474 -0.931251 0.931251
v 0.800000 1.000000 0.800000
v 0.800000 0.800000 1.000000
v 1.000000 0.800000 0.800000
v 0.800000 0.984776 0.876537
v 0.800000 0.941421 0.941421
v 0.876537 0.984776 0.800000
v 0.878455 0.966402 0.878455
v 0.874474 0.931251 0.931251
v 0.915470 0.915470 0.915470
v 0.876537 0.800000 0.984776
v 0.941421 0.800000 0.941421
v 0.800000 0.876537 0.984776
v 0.878455 0.878455 0.966402
v 0.931251 0.874474 0.931251
v 0.984776 0.876537 0.800000
v 0.941421 0.941421 0.800000
v 0.984776 0.800000 0.876537
v 0.966402 0.878455 0.878455
v 0.931251 0.931251 0.874474
v 0.800000 -1.000000 -0.800000
v 0.800000 -0.800000 -1.000000
v 1.000000 -0.800000 -0.800000
v 0.800000 -0.984776 -0.876537
v 0.800000 -0.941421 -0.941421
v 0.876537 -0.984776 -0.800000
v 0.878455 -0.966402 -0.878455
v 0.874474 -0.931251 -0.931251
v 0.915470 -0.915470 -0.915470
v 0.876537 -0.800000 -0.984776
v 0.941421 -0.800000 -0.941421
v 0.800000 -0.876537 -0.984776
v 0.878455 -0.878455 -0.966402
v 0.931251 -0.874474 -0.931251
v 0.984776 -0.876537 -0.800000
v 0.941421 -0.941421 -0.800000
v 0.984776 -0.800000 -0.876537
v 0.966402 -0.878455 -0.878455
v 0.931251 -0.931251 -0.874474
v 0.800000 1.000000 -0.800000
v 1.000000 0.800000 -0.800000
v 0.800000 0.800000 -1.000000
v 0.876537 0.984776 -0.800000
v 0.941421 0.941421 -0.800000
v 0.800000 0.984776 -0.876537
v 0.878455 0.966402 -0.878455
v 0.931251 0.931251 -0.874474
v 0.915470 0.915470 -0.915470
v 0.984776 0.800000 -0.876537
v 0.941421 0.800000 -0.941421
v 0.984776 0.876537 -0.800000
v 0.966402 0.878455 -0.878455
v 0.931251 0.874474 -0.931251
v 0.800000 0.876537 -0.984776
v 0.800000 0.941421 -0.941421
v 0.876537 0.800000 -0.984776
v 0.878455 0.878455 -0.966402
v 0.874474 0.931251 -0.931251
vt 0.400000 0.775000
vt 0.600000 0.775000
vt 0.600000 0.975000
vt 0.400000 0.975000
vt 0.400000 0.525000
vt 0.600000 0.525000
vt 0.600000 0.725000
vt 0.400000 0.725000
vt 0.650000 0.525000
vt 0.850000 0.525000
vt 0.850000 0.725000
vt 0.650000 0.725000
vt 0.400000 0.025000
vt 0.600000 0.025000
vt 0.600000 0.225000
vt 0.400000 0.225000
vt 0.400000 0.275000
vt 0.600000 0.275000
vt 0.600000 0.475000
vt 0.400000 0.475000
vt 0.150000 0.725000
vt 0.150000 0.734567
vt 0.140193 0.734807
vt 0.140433 0.725000
vt 0.150000 0.750000
vt 0.140691 0.750000
vt 0.125000 0.734309
vt 0.125000 0.725000
vt 0.135566 0.750000
vt 0.400000 0.984567
vt 0.390193 0.984807
vt 0.390433 0.975000
vt 0.400000 1.000000
vt 0.390691 1.000000
vt 0.375000 0.984309
vt 0.375000 0.975000
vt 0.385566 1.000000
vt 0.390433 0.025000
vt 0.390193 0.015193
vt 0.400000 0.015433
vt 0.375000 0.025000
vt 0.375000 0.015691
vt 0.390691 0.000000
vt 0.400000 0.000000
vt 0.375000 0.010566
vt 0.609567 0.975000
vt 0.609807 0.984807
vt 0.600000 0.984567
vt 0.625000 0.975000
vt 0.625000 0.984309
vt 0.609309 1.000000
vt 0.600000 1.000000
vt 0.625000 0.989434
vt 0.859567 0.725000
vt 0.859807 0.734807
vt 0.850000 0.734567
vt 0.875000 0.725000
vt 0.875000 0.734309
vt 0.859309 0.750000
vt 0.850000 0.750000
vt 0.875000 0.739434
vt 0.600000 0.015433
vt 0.609807 0.015193
vt 0.609567 0.025000
vt 0.600000 0.000000
vt 0.609309 0.000000
vt 0.625000 0.015691
vt 0.625000 0.025000
vt 0.614434 0.000000
vt 0.150000 0.525000
vt 0.140433 0.525000
vt 0.140193 0.515193
vt 0.150000 0.515433
vt 0.125000 0.525000
vt 0.125000 0.515691
vt 0.140691 0.500000
vt 0.150000 0.500000
vt 0.125000 0.510566
vt 0.400000 0.234567
vt 0.390193 0.234807
vt 0.390433 0.225000
vt 0.400000 0.250000
vt 0.390691 0.250000
vt 0.375000 0.234309
vt 0.375000 0.225000
vt 0.385566 0.250000
vt 0.390433 0.275000
vt 0.390193 0.265193
vt 0.400000 0.265433
vt 0.375000 0.275000
vt 0.375000 0.265691
vt 0.375000 0.260566
vt 0.850000 0.515433
vt 0.859807 0.515193
vt 0.859567 0.525000
vt 0.850000 0.500000
vt 0.859309 0.500000
vt 0.875000 0.515691
vt 0.875000 0.525000
vt 0.864434 0.500000
vt 0.600000 0.265433
vt 0.609807 0.265193
vt 0.609567 0.275000
vt 0.600000 0.250000
vt 0.609309 0.250000
vt 0.625000 0.265691
vt 0.625000 0.275000
vt 0.614434 0.250000
vt 0.609567 0.225000
vt 0.609807 0.234807
vt 0.600000 0.234567
vt 0.625000 0.225000
vt 0.625000 0.234309
vt 0.625000 0.239434
vt 0.350000 0.725000
vt 0.359567 0.725000
vt 0.359807 0.734807
vt 0.350000 0.734567
vt 0.375000 0.725000
vt 0.375000 0.734309
vt 0.359309 0.750000
vt 0.350000 0.750000
vt 0.378522 0.750000
vt 0.400000 0.734567
vt 0.390193 0.734807
vt 0.390433 0.725000
vt 0.400000 0.750000
vt 0.390691 0.750000
vt 0.390433 0.775000
vt 0.390193 0.765193
vt 0.400000 0.765433
vt 0.375000 0.775000
vt 0.375000 0.765691
vt 0.650000 0.734567
vt 0.640193 0.734807
vt 0.640433 0.725000
vt 0.650000 0.750000
vt 0.640691 0.750000
vt 0.625000 0.734309
vt 0.625000 0.725000
vt 0.625000 0.746478
vt 0.600000 0.765433
vt 0.609807 0.765193
vt 0.609567 0.775000
vt 0.600000 0.750000
vt 0.609309 0.750000
vt 0.625000 0.765691
vt 0.625000 0.775000
vt 0.609567 0.725000
vt 0.609807 0.734807
vt 0.600000 0.734567
vt 0.350000 0.525000
vt 0.350000 0.515433
vt 0.359807 0.515193
vt 0.359567 0.525000
vt 0.350000 0.500000
vt 0.359309 0.500000
vt 0.375000 0.515691
vt 0.375000 0.525000
vt 0.375000 0.503522
vt 0.400000 0.484567
vt 0.390193 0.484807
vt 0.390433 0.475000
vt 0.400000 0.500000
vt 0.390691 0.500000
vt 0.375000 0.484309
vt 0.375000 0.475000
vt 0.390433 0.525000
vt 0.390193 0.515193
vt 0.400000 0.515433
vt 0.640433 0.525000
vt 0.640193 0.515193
vt 0.650000 0.515433
vt 0.625000 0.525000
vt 0.625000 0.515691
vt 0.640691 0.500000
vt 0.650000 0.500000
vt 0.621478 0.500000
vt 0.600000 0.515433
vt 0.609807 0.515193
vt 0.609567 0.525000
vt 0.600000 0.500000
vt 0.609309 0.500000
vt 0.609567 0.475000
vt 0.609807 0.484807
vt 0.600000 0.484567
vt 0.625000 0.475000
vt 0.625000 0.484309
vn 0.1004 -0.1004 0.9899
vn 0.1004 0.1004 0.9899
vn -0.1004 0.1004 0.9899
vn -0.1004 -0.1004 0.9899
vn 0.9899 -0.1004 -0.1004
vn 0.9899 0.1004 -0.1004
vn 0.9899 0.1004 0.1004
vn 0.9899 -0.1004 0.1004
vn 0.1004 0.9899 -0.1004
vn -0.1004 0.9899 -0.1004
vn -0.1004 0.9899 0.1004
vn 0.1004 0.9899 0.1004
vn -0.9899 -0.1004 0.1004
vn -0.9899 0.1004 0.1004
vn -0.9899 0.1004 -0.1004
vn -0.9899 -0.1004 -0.1004
vn -0.1004 -0.1004 -0.9899
vn -0.1004 0.1004 -0.9899
vn 0.1004 0.1004 -0.9899
vn 0.1004 -0.1004 -0.9899
vn -0.1004 -0.9899 0.1004
vn -0.0981 -0.9201 0.3792
vn -0.3673 -0.8545 0.3673
vn -0.3792 -0.9201 0.0981
vn -0.0919 -0.7041 0.7041
vn -0.3347 -0.6663 0.6663
vn -0.6663 -0.6663 0.3347
vn -0.7041 -0.7041 0.0919
vn -0.5773 -0.5773 0.5773
vn -0.3792 -0.0981 0.9201
vn -0.3673 -0.3673 0.8545
vn -0.0981 -0.3792 0.9201
vn -0.7041 -0.0919 0.7041
vn -0.6663 -0.3347 0.6663
vn -0.9201 -0.3792 0.0981
vn -0.8545 -0.3673 0.3673
vn -0.9201 -0.0981 0.3792
vn -0.0981 0.3792 0.9201
vn -0.3673 0.3673 0.8545
vn -0.3792 0.0981 0.9201
vn -0.0919 0.7041 0.7041
vn -0.3347 0.6663 0.6663
vn -0.6663 0.3347 0.6663
vn -0.7041 0.0919 0.7041
vn -0.5773 0.5773 0.5773
vn -0.3792 0.9201 0.0981
vn -0.3673 0.8545 0.3673
vn -0.0981 0.9201 0.3792
vn -0.7041 0.7041 0.0919
vn -0.6663 0.6663 0.3347
vn -0.9201 0.0981 0.3792
vn -0.8545 0.3673 0.3673
vn -0.9201 0.3792 0.0981
vn -0.1004 -0.9899 -0.1004
vn -0.3792 -0.9201 -0.0981
vn -0.3673 -0.8545 -0.3673
vn -0.0981 -0.9201 -0.3792
vn -0.7041 -0.7041 -0.0919
vn -0.6663 -0.6663 -0.3347
vn -0.3347 -0.6663 -0.6663
vn -0.0919 -0.7041 -0.7041
vn -0.5773 -0.5773 -0.5773
vn -0.9201 -0.0981 -0.3792
vn -0.8545 -0.3673 -0.3673
vn -0.9201 -0.3792 -0.0981
vn -0.7041 -0.0919 -0.7041
vn -0.6663 -0.3347 -0.6663
vn -0.0981 -0.3792 -0.9201
vn -0.3673 -0.3673 -0.8545
vn -0.3792 -0.0981 -0.9201
vn -0.0981 0.9201 -0.3792
vn -0.3673 0.8545 -0.3673
vn -0.3792 0.9201 -0.0981
vn -0.0919 0.7041 -0.7041
vn -0.3347 0.6663 -0.6663
vn -0.6663 0.6663 -0.3347
vn -0.7041 0.7041 -0.0919
vn -0.5773 0.5773 -0.5773
vn -0.3792 0.0981 -0.9201
vn -0.3673 0.3673 -0.8545
vn -0.0981 0.3792 -0.9201
vn -0.7041 0.0919 -0.7041
vn -0.6663 0.3347 -0.6663
vn -0.9201 0.3792 -0.0981
vn -0.8545 0.3673 -0.3673
vn -0.9201 0.0981 -0.3792
vn 0.1004 -0.9899 0.1004
vn 0.3792 -0.9201 0.0981
vn 0.3673 -0.8545 0.3673
vn 0.0981 -0.9201 0.3792
vn 0.7041 -0.7041 0.0919
vn 0.6663 -0.6663 0.3347
vn 0.3347 -0.6663 0.6663
vn 0.0919 -0.7041 0.7041
vn 0.5773 -0.5773 0.5773
vn 0.9201 -0.0981 0.3792
vn 0.8545 -0.3673 0.3673
vn 0.9201 -0.3792 0.0981
vn 0.7041 -0.0919 0.7041
vn 0.6663 -0.3347 0.6663
vn 0.0981 -0.3792 0.9201
vn 0.3673 -0.3673 0.8545
vn 0.3792 -0.0981 0.9201
vn 0.0981 0.9201 0.3792
vn 0.3673 0.8545 0.3673
vn 0.3792 0.9201 0.0981
vn 0.0919 0.7041 0.7041
vn 0.3347 0.6663 0.6663
vn 0.6663 0.6663 0.3347
vn 0.7041 0.7041 0.0919
vn 0.5773 0.5773 0.5773
vn 0.3792 0.0981 0.9201
vn 0.3673 0.3673 0.8545
vn 0.0981 0.3792 0.9201
vn 0.7041 0.0919 0.7041
vn 0.6663 0.3347 0.6663
vn 0.9201 0.3792 0.0981
vn 0.8545 0.3673 0.3673
vn 0.9201 0.0981 0.3792
vn 0.1004 -0.9899 -0.1004
vn 0.0981 -0.9201 -0.3792
vn 0.3673 -0.8545 -0.3673
vn 0.3792 -0.9201 -0.0981
vn 0.0919 -0.7041 -0.7041
vn 0.3347 -0.6663 -0.6663
vn 0.6663 -0.6663 -0.3347
vn 0.7041 -0.7041 -0.0919
vn 0.5773 -0.5773 -0.5773
vn 0.3792 -0.0981 -0.9201
vn 0.3673 -0.3673 -0.8545
vn 0.0981 -0.3792 -0.9201
vn 0.7041 -0.0919 -0.7041
vn 0.6663 -0.3347 -0.6663
vn 0.9201 -0.3792 -0.0981
vn 0.8545 -0.3673 -0.3673
vn 0.9201 -0.0981 -0.3792
vn 0.3792 0.9201 -0.0981
vn 0.3673 0.8545 -0.3673
vn 0.0981 0.9201 -0.3792
vn 0.7041 0.7041 -0.0919
vn 0.6663 0.6663 -0.3347
vn 0.3347 0.6663 -0.6663
vn 0.0919 0.7041 -0.7041
vn 0.5773 0.5773 -0.5773
vn 0.9201 0.0981 -0.3792
vn 0.8545 0.3673 -0.3673
vn 0.9201 0.3792 -0.0981
vn 0.7041 0.0919 -0.7041
vn 0.6663 0.3347 -0.6663
vn 0.0981 0.3792 -0.9201
vn 0.3673 0.3673 -0.8545
vn 0.3792 0.0981 -0.9201
usemtl None
s 1
f 79/1/1 97/2/2 20/3/3 2/4/4
f 117/5/5 135/6/6 98/7/7 78/8/8
f 134/9/9 58/10/10 21/11/11 96/12/12
f 3/13/13 22/14/14 60/15/15 40/16/16
f 41/17/17 59/18/18 136/19/19 116/20/20
f 1/21/21 4/22/22 7/23/23 6/24/24
f 4/22/22 5/25/25 8/26/26 7/23/23
f 6/24/24 7/23/23 19/27/27 16/28/28
f 7/23/23 8/26/26 9/29/29 19/27/27
f 2/4/4 10/30/30 13/31/31 12/32/32
f 10/30/30 11/33/33 14/34/34 13/31/31
f 12/32/32 13/31/31 8/35/26 5/36/25
f 13/31/31 14/34/34 9/37/29 8/35/26
f 3/13/13 15/38/35 18/39/36 17/40/37
f 15/38/35 16/41/28 19/42/27 18/39/36
f 17/40/37 18/39/36 14/43/34 11/44/33
f 18/39/36 19/42/27 9/45/29 14/43/34
f 20/3/3 23/46/38 26/47/39 25/48/40
f 23/46/38 24/49/41 27/50/42 26/47/39
f 25/48/40 26/47/39 38/51/43 35/52/44
f 26/47/39 27/50/42 28/53/45 38/51/43
f 21/11/11 29/54/46 32/55/47 31/56/48
f 29/54/46 30/57/49 33/58/50 32/55/47
f 31/56/48 32/55/47 27/59/42 24/60/41
f 32/55/47 33/58/50 28/61/45 27/59/42
f 22/14/14 34/62/51 37/63/52 36/64/53
f 34/62/51 35/65/44 38/66/43 37/63/52
f 36/64/53 37/63/52 33/67/50 30/68/49
f 37/63/52 38/66/43 28/69/45 33/67/50
f 39/70/54 42/71/55 45/72/56 44/73/57
f 42/71/55 43/74/58 46/75/59 45/72/56
f 44/73/57 45/72/56 57/76/60 54/77/61
f 45/72/56 46/75/59 47/78/62 57/76/60
f 40/16/16 48/79/63 51/80/64 50/81/65
f 48/79/63 49/82/66 52/83/67 51/80/64
f 50/81/65 51/80/64 46/84/59 43/85/58
f 51/80/64 52/83/67 47/86/62 46/84/59
f 41/17/17 53/87/68 56/88/69 55/89/70
f 53/87/68 54/90/61 57/91/60 56/88/69
f 55/89/70 56/88/69 52/83/67 49/82/66
f 56/88/69 57/91/60 47/92/62 52/83/67
f 58/10/10 61/93/71 64/94/72 63/95/73
f 61/93/71 62/96/74 65/97/75 64/94/72
f 63/95/73 64/94/72 76/98/76 73/99/77
f 64/94/72 65/97/75 66/100/78 76/98/76
f 59/18/18 67/101/79 70/102/80 69/103/81
f 67/101/79 68/104/82 71/105/83 70/102/80
f 69/103/81 70/102/80 65/106/75 62/107/74
f 70/102/80 71/105/83 66/108/78 65/106/75
f 60/15/15 72/109/84 75/110/85 74/111/86
f 72/109/84 73/112/77 76/113/76 75/110/85
f 74/111/86 75/110/85 71/105/83 68/104/82
f 75/110/85 76/113/76 66/114/78 71/105/83
f 77/115/87 80/116/88 83/117/89 82/118/90
f 80/116/88 81/119/91 84/120/92 83/117/89
f 82/118/90 83/117/89 95/121/93 92/122/94
f 83/117/89 84/120/92 85/123/95 95/121/93
f 78/8/8 86/124/96 89/125/97 88/126/98
f 86/124/96 87/127/99 90/128/100 89/125/97
f 88/126/98 89/125/97 84/120/92 81/119/91
f 89/125/97 90/128/100 85/123/95 84/120/92
f 79/1/1 91/129/101 94/130/102 93/131/103
f 91/129/101 92/132/94 95/133/93 94/130/102
f 93/131/103 94/130/102 90/128/100 87/127/99
f 94/130/102 95/133/93 85/123/95 90/128/100
f 96/12/12 99/134/104 102/135/105 101/136/106
f 99/134/104 100/137/107 103/138/108 102/135/105
f 101/136/106 102/135/105 114/139/109 111/140/110
f 102/135/105 103/138/108 104/141/111 114/139/109
f 97/2/2 105/142/112 108/143/113 107/144/114
f 105/142/112 106/145/115 109/146/116 108/143/113
f 107/144/114 108/143/113 103/147/108 100/148/107
f 108/143/113 109/146/116 104/141/111 103/147/108
f 98/7/7 110/149/117 113/150/118 112/151/119
f 110/149/117 111/140/110 114/139/109 113/150/118
f 112/151/119 113/150/118 109/146/116 106/145/115
f 113/150/118 114/139/109 104/141/111 109/146/116
f 115/152/120 118/153/121 121/154/122 120/155/123
f 118/153/121 119/156/124 122/157/125 121/154/122
f 120/155/123 121/154/122 133/158/126 130/159/127
f 121/154/122 122/157/125 123/160/128 133/158/126
f 116/20/20 124/161/129 127/162/130 126/163/131
f 124/161/129 125/164/132 128/165/133 127/162/130
f 126/163/131 127/162/130 122/166/125 119/167/124
f 127/162/130 128/165/133 123/160/128 122/166/125
f 117/5/5 129/168/134 132/169/135 131/170/136
f 129/168/134 130/159/127 133/158/126 132/169/135
f 131/170/136 132/169/135 128/165/133 125/164/132
f 132/169/135 133/158/126 123/160/128 128/165/133
f 134/9/9 137/171/137 140/172/138 139/173/139
f 137/171/137 138/174/140 141/175/141 140/172/138
f 139/173/139 140/172/138 152/176/142 149/177/143
f 140/172/138 141/175/141 142/178/144 152/176/142
f 135/6/6 143/179/145 146/180/146 145/181/147
f 143/179/145 144/182/148 147/183/149 146/180/146
f 145/181/147 146/180/146 141/175/141 138/174/140
f 146/180/146 147/183/149 142/178/144 141/175/141
f 136/19/19 148/184/150 151/185/151 150/186/152
f 148/184/150 149/187/143 152/188/142 151/185/151
f 150/186/152 151/185/151 147/183/149 144/182/148
f 151/185/151 152/188/142 142/178/144 147/183/149
f 39/70/54 1/21/21 6/24/24 42/71/55
f 42/71/55 6/24/24 16/28/28 43/74/58
f 43/85/58 16/41/28 15/38/35 50/81/65
f 50/81/65 15/38/35 3/13/13 40/16/16
f 2/4/4 20/3/3 25/48/40 10/30/30
f 10/30/30 25/48/40 35/52/44 11/33/33
f 11/44/33 35/65/44 34/62/51 17/40/37
f 17/40/37 34/62/51 22/14/14 3/13/13
f 21/11/11 58/10/10 63/95/73 29/54/46
f 29/54/46 63/95/73 73/99/77 30/57/49
f 30/68/49 73/112/77 72/109/84 36/64/53
f 36/64/53 72/109/84 60/15/15 22/14/14
f 59/18/18 41/17/17 55/89/70 67/101/79
f 67/101/79 55/89/70 49/82/66 68/104/82
f 68/104/82 49/82/66 48/79/63 74/111/86
f 74/111/86 48/79/63 40/16/16 60/15/15
f 115/152/120 39/70/54 44/73/57 118/153/121
f 118/153/121 44/73/57 54/77/61 119/156/124
f 119/167/124 54/90/61 53/87/68 126/163/131
f 126/163/131 53/87/68 41/17/17 116/20/20
f 58/10/10 134/9/9 139/173/139 61/93/71
f 61/93/71 139/173/139 149/177/143 62/96/74
f 62/107/74 149/187/143 148/184/150 69/103/81
f 69/103/81 148/184/150 136/19/19 59/18/18
f 135/6/6 117/5/5 131/170/136 143/179/145
f 143/179/145 131/170/136 125/164/132 144/182/148
f 144/182/148 125/164/132 124/161/129 150/186/152
f 150/186/152 124/161/129 116/20/20 136/19/19
f 77/115/87 115/152/120 120/155/123 80/116/88
f 80/116/88 120/155/123 130/159/127 81/119/91
f 81/119/91 130/159/127 129/168/134 88/126/98
f 88/126/98 129/168/134 117/5/5 78/8/8
f 134/9/9 96/12/12 101/136/106 137/171/137
f 137/171/137 101/136/106 111/140/110 138/174/140
f 138/174/140 111/140/110 110/149/117 145/181/147
f 145/181/147 110/149/117 98/7/7 135/6/6
f 97/2/2 79/1/1 93/131/103 105/142/112
f 105/142/112 93/131/103 87/127/99 106/145/115
f 106/145/115 87/127/99 86/124/96 112/151/119
f 112/151/119 86/124/96 78/8/8 98/7/7
f 1/21/21 77/115/87 82/118/90 4/22/22
f 4/22/22 82/118/90 92/122/94 5/25/25
f 5/36/25 92/132/94 91/129/101 12/32/32
f 12/32/32 91/129/101 79/1/1 2/4/4
f 96/12/12 21/11/11 31/56/48 99/134/104
f 99/134/104 31/56/48 24/60/41 100/137/107
f 100/148/107 24/49/41 23/46/38 107/144/114
f 107/144/114 23/46/38 20/3/3 97/2/2
f 39/70/54 115/152/120 77/115/87 1/21/21
